 <svg display="none" xmlns="http://www.w3.org/2000/svg">
            <symbol id="needle" viewBox="0 0 15 15">
              <g clip-path="url(#clip0)">
                <path
                  d="M14.9081 7.71774C15.0303 7.59587 15.0305 7.398 14.9086 7.2758C14.9085 7.27562 14.9082 7.27542 14.9081 7.27524L9.28307 1.65024C9.15894 1.53033 8.9611 1.53379 8.84119 1.65792C8.72424 1.77903 8.72424 1.97101 8.84119 2.0921L13.9331 7.18398L0.312459 7.18398C0.139871 7.18398 -5.07966e-05 7.3239 -5.08041e-05 7.49649C-5.08117e-05 7.66908 0.139871 7.809 0.312459 7.809L13.9331 7.809L8.84183 12.9002C8.7177 13.0202 8.71424 13.218 8.83416 13.3421C8.95407 13.4663 9.15188 13.4697 9.27604 13.3498C9.27865 13.3473 9.2812 13.3447 9.28372 13.3421L14.9081 7.71774Z"
                />
                <path
                  d="M8.75005 13.1215C8.74991 13.0386 8.78272 12.959 8.84131 12.9002L14.2457 7.49649L8.84128 2.09274C8.72137 1.96861 8.72483 1.77077 8.84896 1.65086C8.97007 1.5339 9.16205 1.5339 9.28314 1.65086L14.9081 7.27586C15.0301 7.39788 15.0301 7.59569 14.9081 7.71774L9.28314 13.3427C9.16091 13.4646 8.96304 13.4643 8.84119 13.342C8.78283 13.2835 8.75005 13.2042 8.75005 13.1215Z"
                />
                <path
                  d="M2.84736e-06 7.49648C2.85491e-06 7.3239 0.139924 7.18397 0.312512 7.18397L14.6875 7.18398C14.8601 7.18398 15 7.3239 15 7.49649C15 7.66907 14.8601 7.809 14.6875 7.809L0.312483 7.80899C0.139924 7.80897 2.83982e-06 7.66907 2.84736e-06 7.49648Z"
                />
              </g>
            </symbol>

            <symbol id="calculator" viewBox="0 0 60 60">
              <g>
              <circle cx="30" cy="30" r="29.5" stroke="#3C4762"/>
              <path d="M39.9922 16H21.0078C19.6993 16 18.6348 17.0645 18.6348 18.373V40.627C18.6348 41.9355 19.6993 43 21.0078 43H39.9922C41.3007 43 42.3652 41.9355 42.3652 40.627V18.373C42.3652 17.0645 41.3007 16 39.9922 16ZM40.7832 40.627C40.7832 41.0631 40.4284 41.418 39.9922 41.418H21.0078C20.5716 41.418 20.2168 41.0631 20.2168 40.627V18.373C20.2168 17.9369 20.5716 17.582 21.0078 17.582H39.9922C40.4284 17.582 40.7832 17.9369 40.7832 18.373V40.627Z" fill="#3C4762"/>
              <path d="M38.4102 19.1641H22.5898C22.153 19.1641 21.7988 19.5182 21.7988 19.9551V26.3887C21.7988 26.8255 22.153 27.1797 22.5898 27.1797H38.4102C38.847 27.1797 39.2012 26.8255 39.2012 26.3887V19.9551C39.2012 19.5182 38.847 19.1641 38.4102 19.1641ZM37.6191 25.5977H23.3809V20.7461H37.6191V25.5977Z" fill="#3C4762"/>
              <path d="M25.7539 28.7617H22.5898C22.153 28.7617 21.7988 29.1159 21.7988 29.5527V32.7168C21.7988 33.1536 22.153 33.5078 22.5898 33.5078H25.7539C26.1908 33.5078 26.5449 33.1536 26.5449 32.7168V29.5527C26.5449 29.1159 26.1908 28.7617 25.7539 28.7617ZM24.9629 31.9258H23.3809V30.3438H24.9629V31.9258Z" fill="#3C4762"/>
              <path d="M25.7539 35.0898H22.5898C22.153 35.0898 21.7988 35.444 21.7988 35.8809V39.0449C21.7988 39.4818 22.153 39.8359 22.5898 39.8359H25.7539C26.1908 39.8359 26.5449 39.4818 26.5449 39.0449V35.8809C26.5449 35.444 26.1908 35.0898 25.7539 35.0898ZM24.9629 38.2539H23.3809V36.6719H24.9629V38.2539Z" fill="#3C4762"/>
              <path d="M32.082 28.7617H28.918C28.4811 28.7617 28.127 29.1159 28.127 29.5527V32.7168C28.127 33.1536 28.4811 33.5078 28.918 33.5078H32.082C32.5189 33.5078 32.873 33.1536 32.873 32.7168V29.5527C32.873 29.1159 32.5189 28.7617 32.082 28.7617ZM31.291 31.9258H29.709V30.3438H31.291V31.9258Z" fill="#3C4762"/>
              <path d="M32.082 35.0898H28.918C28.4811 35.0898 28.127 35.444 28.127 35.8809V39.0449C28.127 39.4818 28.4811 39.8359 28.918 39.8359H32.082C32.5189 39.8359 32.873 39.4818 32.873 39.0449V35.8809C32.873 35.444 32.5189 35.0898 32.082 35.0898ZM31.291 38.2539H29.709V36.6719H31.291V38.2539Z" fill="#3C4762"/>
              <path d="M38.4102 28.7617H35.2461C34.8092 28.7617 34.4551 29.1159 34.4551 29.5527V39.0449C34.4551 39.4818 34.8092 39.8359 35.2461 39.8359H38.4102C38.847 39.8359 39.2012 39.4818 39.2012 39.0449V29.5527C39.2012 29.1159 38.847 28.7617 38.4102 28.7617ZM37.6191 38.2539H36.0371V30.3438H37.6191V38.2539Z" fill="#3C4762"/>
              </g>
           </symbol>
          </svg>