<svg width="30" height="30" viewBox="0 0 30 30" fill="none" xmlns="http://www.w3.org/2000/svg">
<path d="M15 0C6.71572 0 0 6.71572 0 15C0 23.2842 6.71572 29.9999 15 29.9999C23.2842 29.9999 29.9999 23.2842 29.9999 15C29.9911 6.71942 23.2806 0.00885183 15 0ZM15 27.8571C7.89916 27.8571 2.14283 22.1008 2.14283 15C2.14283 7.89916 7.89916 2.14283 15 2.14283C22.1008 2.14283 27.8571 7.89916 27.8571 15C27.8494 22.0976 22.0976 27.8494 15 27.8571Z" fill="#3C4762"/>
<path d="M15.0002 5.35712C14.4084 5.35712 13.9287 5.83681 13.9287 6.42857V13.9286H6.42875C5.83699 13.9286 5.3573 14.4083 5.3573 15C5.3573 15.5918 5.83699 16.0714 6.42875 16.0714H15.0002C15.5919 16.0714 16.0716 15.5917 16.0716 15V6.42857C16.0716 5.83681 15.5919 5.35712 15.0002 5.35712Z" fill="#3C4762"/>
</svg>
