<svg width="13" height="13" viewBox="0 0 13 13" fill="none" xmlns="http://www.w3.org/2000/svg">
<path d="M6.49999 0C2.91014 0 0 2.91014 0 6.49999C0 10.0898 2.91014 13 6.49999 13C10.0898 13 13 10.0898 13 6.49999C12.9962 2.91175 10.0882 0.00383579 6.49999 0ZM6.49999 12.0714C3.42297 12.0714 0.928562 9.577 0.928562 6.49999C0.928562 3.42297 3.42297 0.928562 6.49999 0.928562C9.577 0.928562 12.0714 3.42297 12.0714 6.49999C12.0681 9.57564 9.57564 12.0681 6.49999 12.0714Z" fill="#405067"/>
<path d="M6.49986 2.32141C6.24343 2.32141 6.03556 2.52928 6.03556 2.78571V6.03571H2.78558C2.52916 6.03571 2.32129 6.24358 2.32129 6.50001C2.32129 6.75643 2.52916 6.96427 2.78558 6.96427H6.49986C6.75628 6.96427 6.96415 6.75641 6.96415 6.49998V2.78571C6.96415 2.52928 6.75628 2.32141 6.49986 2.32141Z" fill="#405067"/>
</svg>
