<svg width="35" height="34" viewBox="0 0 35 34" fill="none" xmlns="http://www.w3.org/2000/svg">
<g clip-path="url(#clip0)">
<path d="M28.2452 2.91428C27.1315 2.91428 7.98445 2.91428 6.75679 2.91428L0 11.8648L17.5726 34.3635L35.0001 11.8622L28.2452 2.91428ZM9.60663 12.8481L14.5575 27.2164L3.33517 12.8481H9.60663ZM11.7634 12.8481H23.2446L17.5434 29.6228L11.7634 12.8481ZM25.3985 12.8481H31.6771L20.4888 27.2936L25.3985 12.8481ZM27.2087 4.90104L31.7081 10.8613H25.3998L23.3866 4.90104H27.2087ZM21.2341 4.90104L23.2473 10.8613H11.7546L13.7678 4.90104H21.2341ZM7.79315 4.90104H11.6152L9.60199 10.8613H3.29372L7.79315 4.90104Z" fill="#3C4762"/>
</g>
<defs>
<clipPath id="clip0">
<rect width="35" height="34" fill="white"/>
</clipPath>
</defs>
</svg>
