<svg width="32" height="30" viewBox="0 0 32 30" fill="none" xmlns="http://www.w3.org/2000/svg">
<g clip-path="url(#clip0)">
<path d="M30.6198 20.3952C31.2756 19.611 31.5901 18.7704 31.55 17.9046C31.5098 16.9511 31.0548 16.2045 30.68 15.7465C31.115 14.7302 31.2823 13.1305 29.8302 11.8883C28.7662 10.9787 26.9594 10.5709 24.4567 10.6838C22.6968 10.7591 21.2246 11.0665 21.1643 11.079H21.1577C20.8231 11.1355 20.4684 11.2045 20.107 11.2798C20.0803 10.8783 20.1539 9.8808 20.9435 7.63488C21.8804 4.96236 21.8268 2.91719 20.7695 1.54956C19.6587 0.112924 17.8854 0 17.3634 0C16.8615 0 16.3998 0.194479 16.0719 0.55207C15.3291 1.36135 15.4161 2.85445 15.5098 3.54454C14.6265 5.76537 12.1505 11.2108 10.056 12.7227C10.0159 12.7478 9.98241 12.7792 9.94895 12.8105C9.33331 13.4191 8.91842 14.0778 8.63737 14.655C8.24256 14.4542 7.79421 14.3413 7.3124 14.3413H3.23043C1.69132 14.3413 0.446655 15.5144 0.446655 16.9511V27.1455C0.446655 28.5885 1.69801 29.7553 3.23043 29.7553H7.3124C7.90797 29.7553 8.46338 29.5797 8.91842 29.2785L10.491 29.4542C10.7319 29.4856 15.0146 29.9937 19.4111 29.9122C20.2074 29.9686 20.9569 30 21.6528 30C22.8507 30 23.8946 29.9122 24.7645 29.7365C26.8122 29.3287 28.2108 28.5132 28.9201 27.3149C29.4621 26.399 29.4621 25.4893 29.3751 24.9122C30.7068 23.7829 30.941 22.5345 30.8942 21.6562C30.8674 21.1481 30.7469 20.7152 30.6198 20.3952ZM3.23043 28.0615C2.68839 28.0615 2.25343 27.6474 2.25343 27.1455V16.9448C2.25343 16.4366 2.69509 16.0289 3.23043 16.0289H7.3124C7.85443 16.0289 8.2894 16.4429 8.2894 16.9448V27.1393C8.2894 27.6474 7.84774 28.0552 7.3124 28.0552H3.23043V28.0615V28.0615ZM28.9067 19.6612C28.6257 19.9373 28.5721 20.3576 28.7863 20.6838C28.7863 20.6901 29.0606 21.1292 29.0941 21.7315C29.1409 22.5533 28.7193 23.2811 27.836 23.9021C27.5215 24.128 27.3944 24.5169 27.5282 24.8683C27.5282 24.8745 27.816 25.7026 27.3475 26.4868C26.8992 27.2396 25.9021 27.7792 24.3898 28.0803C23.1786 28.325 21.5324 28.3689 19.5115 28.2183C19.4847 28.2183 19.4513 28.2183 19.4178 28.2183C15.115 28.3061 10.7653 27.7792 10.7185 27.7729H10.7118L10.0359 27.6976C10.0761 27.522 10.0962 27.3338 10.0962 27.1455V16.9448C10.0962 16.675 10.0493 16.4115 9.96903 16.1669C10.0895 15.7465 10.4241 14.8118 11.2137 14.0151C14.2183 11.7817 17.156 4.24718 17.2831 3.92095C17.3367 3.78921 17.35 3.64492 17.3233 3.50063C17.2095 2.79799 17.2497 1.93852 17.4103 1.6813C17.7649 1.68758 18.7219 1.78168 19.2973 2.52823C19.9799 3.4128 19.9531 4.99373 19.217 7.08908C18.0928 10.2823 17.9991 11.9636 18.8891 12.7039C19.3308 13.074 19.9197 13.0928 20.348 12.9486C20.7561 12.8607 21.1443 12.7854 21.5123 12.729C21.5391 12.7227 21.5725 12.7164 21.5993 12.7102C23.6537 12.2898 27.3341 12.0326 28.6123 13.1242C29.6963 14.0527 28.9268 15.2823 28.8398 15.4141C28.5922 15.7654 28.6658 16.2233 29.0004 16.5056C29.0071 16.5119 29.7097 17.133 29.7432 17.9674C29.7699 18.5257 29.4889 19.0966 28.9067 19.6612Z" fill="#3C4762"/>
</g>
<defs>
<clipPath id="clip0">
<rect width="32" height="30" fill="white"/>
</clipPath>
</defs>
</svg>
